<?xml version="1.0" standalone="no"?>
<!DOCTYPE svg PUBLIC "-//W3C//DTD SVG 20010904//EN"
 "http://www.w3.org/TR/2001/REC-SVG-20010904/DTD/svg10.dtd">
<svg version="1.0" xmlns="http://www.w3.org/2000/svg"
 width="70" height="70" viewBox="0 0 512 512"
 preserveAspectRatio="xMidYMid meet">

<g transform="translate(0.000000,512.000000) scale(0.100000,-0.100000)"
fill="#000000" stroke="none">
<path d="M2415 4790 c-206 -32 -397 -130 -546 -279 -125 -125 -214 -278 -259
-446 -33 -121 -38 -312 -12 -435 27 -132 72 -241 141 -346 156 -236 391 -390
664 -434 l77 -13 0 -1234 0 -1234 25 -24 c32 -33 78 -33 110 0 l25 24 0 1234
0 1234 77 13 c403 65 721 373 805 779 26 125 21 305 -11 431 -91 350 -364 619
-719 711 -89 23 -286 33 -377 19z m32 -425 c11 -8 23 -26 27 -39 11 -46 -9
-73 -84 -110 -127 -63 -202 -146 -240 -263 -12 -38 -31 -76 -42 -85 -30 -26
-80 -23 -108 7 -20 21 -22 31 -17 72 19 140 161 324 306 396 79 40 124 46 158
22z"/>
</g>
</svg>
