<?xml version="1.0" standalone="no"?>
<!DOCTYPE svg PUBLIC "-//W3C//DTD SVG 20010904//EN"
 "http://www.w3.org/TR/2001/REC-SVG-20010904/DTD/svg10.dtd">
<svg version="1.0" xmlns="http://www.w3.org/2000/svg"
 width="70" height="70" viewBox="0 0 512 512"
 preserveAspectRatio="xMidYMid meet">

<g transform="translate(0.000000,512.000000) scale(0.100000,-0.100000)"
fill="#000000" stroke="none">
<path d="M2524 4788 c-12 -5 -27 -21 -33 -34 -8 -18 -11 -370 -11 -1248 l0
-1223 -102 -20 c-192 -38 -347 -117 -485 -247 -103 -97 -159 -174 -218 -298
-263 -554 44 -1207 641 -1365 84 -22 120 -26 239 -26 95 0 163 5 212 16 473
108 799 536 770 1011 -8 133 -38 249 -92 364 -58 122 -114 199 -211 292 -140
133 -298 215 -491 253 l-103 20 0 1223 c0 875 -3 1230 -11 1247 -11 24 -48 48
-72 46 -7 0 -22 -5 -33 -11z m593 -3540 c29 -27 30 -66 3 -142 -46 -136 -167
-272 -297 -336 -85 -42 -127 -44 -159 -6 -48 55 -29 93 74 145 123 62 191 139
232 263 12 35 30 71 42 81 28 24 77 22 105 -5z"/>
</g>
</svg>
